<?xml version="1.0" encoding="UTF-8" standalone="no"?>
<!-- Created with Inkscape (http://www.inkscape.org/) -->

<svg
   width="100mm"
   height="100mm"
   viewBox="0 0 100 100"
   version="1.1"
   id="svg1"
   xml:space="preserve"
   inkscape:version="1.4.2 (f4327f4, 2025-05-13)"
   sodipodi:docname="dragon.svg"
   xmlns:inkscape="http://www.inkscape.org/namespaces/inkscape"
   xmlns:sodipodi="http://sodipodi.sourceforge.net/DTD/sodipodi-0.dtd"
   xmlns="http://www.w3.org/2000/svg"
   xmlns:svg="http://www.w3.org/2000/svg"><sodipodi:namedview
     id="namedview1"
     pagecolor="#ffffff"
     bordercolor="#000000"
     borderopacity="0.25"
     inkscape:showpageshadow="2"
     inkscape:pageopacity="0.0"
     inkscape:pagecheckerboard="0"
     inkscape:deskcolor="#d1d1d1"
     inkscape:document-units="mm"
     inkscape:zoom="1.4485269"
     inkscape:cx="157.40128"
     inkscape:cy="265.44208"
     inkscape:window-width="1920"
     inkscape:window-height="1094"
     inkscape:window-x="-11"
     inkscape:window-y="-11"
     inkscape:window-maximized="1"
     inkscape:current-layer="layer2" /><defs
     id="defs1"><inkscape:path-effect
       effect="fill_between_many"
       method="originald"
       linkedpaths="#path2,0,1"
       id="path-effect8"
       is_visible="true"
       lpeversion="0"
       join="true"
       close="true"
       autoreverse="true" /></defs><g
     inkscape:groupmode="layer"
     id="layer2"
     inkscape:label="Calque 2"><path
       id="path2"
       style="fill:#000000;stroke-width:0.227928"
       d="m 96.600031,43.969634 c -0.50891,5.03397 -0.882502,10.61254 -3.652977,14.746499 -3.887167,-0.20197 -8.0792,-4.204905 -11.703565,-6.747031 -2.403817,-1.488777 -6.734177,-6.727391 -7.744951,-6.396482 2.771486,6.865388 10.272078,8.621375 13.651378,14.877506 1.976434,5.87297 -5.527224,6.268205 -7.824745,2.585044 -3.567605,-3.4453 -7.08423,-8.880617 -12.338283,-7.91865 -2.962295,-2.227632 -10.363718,-4.314003 -10.42364,1.869966 0.99367,5.632699 6.068865,8.020131 8.905369,12.239219 5.239245,6.394732 9.351653,14.223428 10.973957,22.878206 -3.302155,3.905901 -8.658137,2.186483 -12.72869,1.225631 C 59.069925,91.75387 54.425837,90.094571 49.969541,87.937927 40.60799,82.262096 35.779909,70.680066 31.834862,59.959285 29.978097,53.937518 29.231986,47.347242 26.085574,41.942926 M 94.63046,43.908163 C 89.470263,40.975982 86.874136,37.260388 84.681218,31.03545 80.786635,26.001477 76.89206,20.967498 72.997477,15.933525 72.86012,20.352101 70.74019,20.404107 68.599586,17.252278 66.449759,15.580696 64.732275,12.141352 62.899056,14.293858 58.01354,10.27881 53.115992,6.2626106 48.222128,2.2532554 c 4.446826,5.5438517 9.038038,10.9337816 13.395551,16.5725476 -4.089277,2.773462 -8.337845,-4.509522 -11.288374,-3.778674 2.429788,5.448202 -4.859863,0.04149 -7.041865,0.18096 -2.291537,-0.534959 -9.153859,-3.754509 -4.478021,-0.197264 0.68164,0.967408 4.011881,2.617972 1.446309,2.747827 l -10.211961,2.714962 6.157188,2.871167 -8.795983,1.351138 4.544591,1.351139 -10.848379,6.924579 10.70178,-2.871167 -8.062984,7.769042 7.329986,-2.026707 -16.858967,20.773742 c 1.720685,5.002319 5.350421,14.694615 11.047783,11.613078 2.885297,-4.000853 -2.247321,-10.128285 -0.452923,-13.156058 4.908731,-1.55246 8.203325,2.317181 10.555222,6.780029 4.256212,6.553801 9.17426,13.080747 11.045997,21.127234 -0.970556,7.086566 -9.507765,2.504705 -11.825365,-0.559936 -0.392878,1.9383 2.823259,8.473826 0.575968,7.830173 -1.80237,-1.415757 -3.604742,-2.831523 -5.407113,-4.247279 0.234131,2.280426 0.617499,5.893605 -2.187914,2.938864 -2.351435,-1.339557 -6.156998,-5.035553 -4.554587,0.03218 l 1.171712,8.344747 C 15.881393,83.932379 7.2667389,70.370006 2.0774467,54.940413 4.589791,51.490176 9.0310219,50.930546 12.547885,49.354864 19.674664,46.745292 26.914392,45.255358 33.900632,42.17242"
       sodipodi:nodetypes="ccccccccccccccccccccccccccccccccccccccccccccccc" /></g></svg>
